<svg width="34" height="33" viewBox="0 0 34 33" fill="none" xmlns="http://www.w3.org/2000/svg">
<g id="formkit:linkedin">
<path id="Vector" d="M7.31 10.0855C9.01 10.0855 10.37 8.74488 10.37 7.11551C10.37 5.48613 8.98875 4.14551 7.31 4.14551C5.63125 4.14551 4.25 5.48613 4.25 7.11551C4.25 8.74488 5.63125 10.0855 7.31 10.0855ZM13.2812 12.3336V28.8749H18.5512V20.7074C18.5512 18.5418 18.9763 16.4586 21.7175 16.4586C24.4587 16.4586 24.4587 18.9336 24.4587 20.8311V28.8749H29.75V19.7999C29.75 15.3449 28.7725 11.9211 23.4175 11.9211C20.8463 11.9211 19.125 13.2824 18.4237 14.5818H18.36V12.313H13.3025L13.2812 12.3336ZM4.675 12.3336H9.96625V28.8749H4.675V12.3336Z" fill="#333333"/>
</g>
</svg>
