<svg width="38" height="42" viewBox="0 0 38 42" fill="none" xmlns="http://www.w3.org/2000/svg">
<g id="mdi:google-plus">
<path id="Vector" d="M36.4163 19.25H33.2497V15.75H30.083V19.25H26.9163V22.75H30.083V26.25H33.2497V22.75H36.4163M12.6663 19.25V23.45H18.9997C18.683 25.2 17.0997 28.7 12.6663 28.7C8.86634 28.7 5.85801 25.2 5.85801 21C5.85801 16.8 8.86634 13.3 12.6663 13.3C14.883 13.3 16.308 14.35 17.0997 15.225L20.108 12.075C18.208 9.975 15.6747 8.75 12.6663 8.75C6.49134 8.75 1.58301 14.175 1.58301 21C1.58301 27.825 6.49134 33.25 12.6663 33.25C18.9997 33.25 23.2747 28.35 23.2747 21.35C23.2747 20.475 23.2747 19.95 23.1163 19.25H12.6663Z" fill="#333333"/>
</g>
</svg>
